<svg width="5000" height="4500" viewBox="0 0 911 1004" fill="none" xmlns="http://www.w3.org/2000/svg">
<circle cx="12.5" cy="12.5" r="12.5" transform="matrix(1 0 0 -1 860 329)" fill="#AF2896"/>
<circle cx="12.5" cy="12.5" r="12.5" transform="matrix(1 0 0 -1 65 193)" fill="#FF6437"/>
<circle cx="4" cy="4" r="4" transform="matrix(1 0 0 -1 776 556)" fill="white"/>
<circle cx="4" cy="4" r="4" transform="matrix(1 0 0 -1 874 502)" fill="white"/>
<circle cx="4" cy="4" r="4" transform="matrix(1 0 0 -1 835 425)" fill="white"/>
<circle cx="4" cy="4" r="4" transform="matrix(1 0 0 -1 806 304)" fill="white"/>
<circle cx="4" cy="4" r="4" transform="matrix(1 0 0 -1 675 157)" fill="white"/>
<circle cx="4" cy="4" r="4" transform="matrix(1 0 0 -1 848 559)" fill="white"/>
<circle cx="4" cy="4" r="4" transform="matrix(1 0 0 -1 872 533)" fill="white"/>
<circle cx="4" cy="4" r="4" transform="matrix(1 0 0 -1 577 477)" fill="white"/>
<circle cx="4" cy="4" r="4" transform="matrix(1 0 0 -1 179 224)" fill="white"/>
<circle cx="4" cy="4" r="4" transform="matrix(1 0 0 -1 878 598)" fill="white"/>
<circle cx="4" cy="4" r="4" transform="matrix(1 0 0 -1 802 615)" fill="white"/>
<circle cx="4" cy="4" r="4" transform="matrix(1 0 0 -1 683 607)" fill="white"/>
<circle cx="4" cy="4" r="4" transform="matrix(1 0 0 -1 503 579)" fill="white"/>
<circle cx="4" cy="4" r="4" transform="matrix(1 0 0 -1 48 639)" fill="white"/>
<circle cx="4" cy="4" r="4" transform="matrix(1 0 0 -1 728 454)" fill="white"/>
<circle cx="4" cy="4" r="4" transform="matrix(1 0 0 -1 797 956)" fill="white"/>
<circle cx="4" cy="4" r="4" transform="matrix(1 0 0 -1 503 1000)" fill="white"/>
<circle cx="4" cy="4" r="4" transform="matrix(1 0 0 -1 671 413)" fill="white"/>
<circle cx="4" cy="4" r="4" transform="matrix(1 0 0 -1 541 322)" fill="white"/>
<circle cx="4" cy="4" r="4" transform="matrix(1 0 0 -1 279 120)" fill="white"/>
<circle cx="4" cy="4" r="4" transform="matrix(1 0 0 -1 828 745)" fill="white"/>
<circle cx="4" cy="4" r="4" transform="matrix(1 0 0 -1 585 762)" fill="white"/>
<circle cx="4" cy="4" r="4" transform="matrix(1 0 0 -1 271 919)" fill="white"/>
<circle cx="12.5" cy="12.5" r="12.5" transform="matrix(1 0 0 -1 202 73)" fill="#80AC0B"/>
<circle cx="12.5" cy="12.5" r="12.5" transform="matrix(1 0 0 -1 609 515)" fill="#FFC864"/>
<circle cx="12.5" cy="12.5" r="12.5" transform="matrix(1 0 0 -1 0 832)" fill="#F573A0"/>
<circle cx="12.5" cy="12.5" r="12.5" transform="matrix(1 0 0 -1 461 384)" fill="#FFC864"/>
<circle cx="12.5" cy="12.5" r="12.5" transform="matrix(1 0 0 -1 707 1011)" fill="#19E68C"/>
<circle cx="12.5" cy="12.5" r="12.5" transform="matrix(1 0 0 -1 296 632)" fill="#19E68C"/>
<circle cx="12.5" cy="12.5" r="12.5" transform="matrix(1 0 0 -1 561 852)" fill="#F97481"/>
<circle cx="12.5" cy="12.5" r="12.5" transform="matrix(1 0 0 -1 0 0)" fill="#FF6437"/>
<circle cx="12.5" cy="12.5" r="12.5" transform="matrix(1 0 0 -1 0 1004)" fill="#FF6437"/>
<circle cx="12.5" cy="12.5" r="12.5" transform="matrix(1 0 0 -1 0 1004)" fill="#FF6437"/>
<circle cx="12.5" cy="12.5" r="12.5" transform="matrix(1 0 0 -1 0 1004)" fill="#FF6437"/>
<circle cx="12.5" cy="12.5" r="12.5" transform="matrix(1 0 0 -1 0 1004)" fill="#FF6437"/>
<ellipse cx="31.5" cy="32" rx="31.5" ry="32" transform="matrix(1 0 0 -1 577 240)" fill="#C87DFF"/>
<ellipse cx="43.3721" cy="24.2665" rx="43.3721" ry="24.2665" transform="matrix(0.991752 -0.128174 -0.128174 -0.991752 507.219 559)" fill="#F036A4"/>
<ellipse cx="33.4129" cy="22.9964" rx="33.4129" ry="22.9964" transform="matrix(0.106387 0.994325 0.994325 -0.106387 608.051 568.059)" fill="#A833FF"/>
<ellipse cx="21.0418" cy="29.6245" rx="21.0418" ry="29.6245" transform="matrix(0.93709 0.349087 0.349087 -0.93709 729.387 799.134)" fill="#59A0F6"/>
<ellipse cx="18.3263" cy="26.1805" rx="18.3263" ry="26.1805" transform="matrix(0.476369 -0.879246 -0.879246 -0.476369 780.039 616)" fill="#F97481"/>
<ellipse cx="13.9637" cy="26.1805" rx="13.9637" ry="26.1805" transform="matrix(0.780666 -0.624949 -0.624949 -0.780666 921.398 628.99)" fill="#B81021"/>
<ellipse cx="11.6124" cy="20.1871" rx="11.6124" ry="20.1871" transform="matrix(0.992578 -0.121611 -0.121611 -0.992578 854.91 810)" fill="#5925FF"/>
<ellipse cx="20.084" cy="8.59534" rx="20.084" ry="8.59534" transform="matrix(0.316783 -0.948498 -0.948498 -0.316783 823.305 585)" fill="#A833FF"/>
<ellipse cx="20.084" cy="8.59534" rx="20.084" ry="8.59534" transform="matrix(0.0903846 -0.995907 -0.995907 -0.0903846 862.258 611.006)" fill="#FFC864"/>
<ellipse cx="24.9726" cy="11.8732" rx="24.9726" ry="11.8732" transform="matrix(-0.261512 -0.9652 -0.9652 0.261512 856.98 493.79)" fill="#FFC864"/>
<ellipse cx="17.8631" cy="8.49299" rx="17.8631" ry="8.49299" transform="matrix(0.779155 -0.626831 -0.626831 -0.779155 904.648 524)" fill="#FFC864"/>
<ellipse cx="24.9726" cy="16.0717" rx="24.9726" ry="16.0717" transform="matrix(0.183322 -0.983053 -0.983053 -0.183322 897.598 440)" fill="#F573A0"/>
<ellipse cx="18.9855" cy="14.2613" rx="18.9855" ry="14.2613" transform="matrix(0.743159 -0.669114 -0.669114 -0.743159 850.085 242.604)" fill="#59A0F6"/>
<ellipse cx="24.9726" cy="20.0527" rx="24.9726" ry="20.0527" transform="matrix(0.490134 -0.871647 -0.871647 -0.490134 749.281 401.191)" fill="#7358FF"/>
<ellipse cx="35.5652" cy="31.6135" rx="35.5652" ry="31.6135" transform="matrix(0.827671 0.561213 0.561213 -0.827671 325 487.331)" fill="#F036A4"/>
<ellipse cx="35.5652" cy="31.6135" rx="35.5652" ry="31.6135" transform="matrix(0.827671 0.561213 0.561213 -0.827671 325 487.331)" fill="#F036A4"/>
<ellipse cx="35.5652" cy="31.6135" rx="35.5652" ry="31.6135" transform="matrix(0.827671 0.561213 0.561213 -0.827671 325 487.331)" fill="#F036A4"/>
</svg>
